<svg xmlns="http://www.w3.org/2000/svg" viewBox="0 0 32 32" fill="none">
  <rect width="32" height="32" fill="#282A33"/>
  <!-- Apply wordmark "A" (reversed a) simplified as favicon mark -->
  <path d="M8 24v-8.4c0-2 .5-3.4 1.4-4.3C10.3 10.4 11.7 10 13.5 10h5c1.8 0 3.2.4 4.1 1.3.9.9 1.4 2.3 1.4 4.3V24h-3.5v-5.5h-9V24H8zm3.5-8.5h5.8v-2c0-.9-.2-1.5-.5-1.8-.3-.3-.9-.5-1.6-.5h-1.6c-.7 0-1.3.2-1.6.5-.3.3-.5.9-.5 1.8v2z" fill="#FFFFFF"/>
  <rect x="0" y="28" width="32" height="4" fill="#FF481A"/>
</svg>
